<svg xmlns="http://www.w3.org/2000/svg" width="61.5" height="146.862" viewBox="0 0 61.5 146.862">
  <path id="Caminho_498" data-name="Caminho 498" d="M14.268,19.516a1.614,1.614,0,0,1-.533-.656,2.09,2.09,0,0,1-.123-.738,2.406,2.406,0,0,1,.656-1.312q.738-.82,2.009-2.419A40.432,40.432,0,0,0,18.9,10.619a32.5,32.5,0,0,0,2.46-4.879A21.139,21.139,0,0,0,22.8-.082a7.986,7.986,0,0,1-2.542.41,6.5,6.5,0,0,1-4.961-2.05A7.355,7.355,0,0,1,13.366-6.97a6.852,6.852,0,0,1,1.968-4.92A6.835,6.835,0,0,1,20.5-13.94a6.571,6.571,0,0,1,5.453,2.419A9.9,9.9,0,0,1,27.88-5.166a28.48,28.48,0,0,1-.861,6.847,34.423,34.423,0,0,1-2.5,6.847,41.817,41.817,0,0,1-3.936,6.478,42.414,42.414,0,0,1-5.084,5.74ZM12.956-71.668a7.677,7.677,0,0,1,.574-2.952,7.324,7.324,0,0,1,1.6-2.419,8.031,8.031,0,0,1,2.378-1.64,7.149,7.149,0,0,1,2.993-.615,7.233,7.233,0,0,1,2.952.615,7.882,7.882,0,0,1,2.419,1.64,7.883,7.883,0,0,1,1.64,2.419,7.233,7.233,0,0,1,.615,2.952,7.149,7.149,0,0,1-.615,2.993,8.031,8.031,0,0,1-1.64,2.378,7.324,7.324,0,0,1-2.419,1.6,7.677,7.677,0,0,1-2.952.574A7.3,7.3,0,0,1,15.129-66.3,7.3,7.3,0,0,1,12.956-71.668ZM67.568-51.66a124.353,124.353,0,0,0-4.961-35.3,129.94,129.94,0,0,0-14.8-32.513,2.564,2.564,0,0,1-.451-2.255A2.688,2.688,0,0,1,48.38-123l3.444-2.132A160.524,160.524,0,0,1,62.443-106.4a124.8,124.8,0,0,1,6.97,18.04,116.673,116.673,0,0,1,3.854,18.04A143.279,143.279,0,0,1,74.456-51.66a142.337,142.337,0,0,1-1.189,18.614,116.858,116.858,0,0,1-3.854,18,124.8,124.8,0,0,1-6.97,18.04A160.523,160.523,0,0,1,51.824,21.73L48.38,19.6a2.688,2.688,0,0,1-1.025-1.271,2.564,2.564,0,0,1,.451-2.255,129.94,129.94,0,0,0,14.8-32.513A124.06,124.06,0,0,0,67.568-51.66Z" transform="translate(-12.956 125.132)" fill="#00a1ed"/>
</svg>
