<svg xmlns="http://www.w3.org/2000/svg" width="254" height="55.036" viewBox="0 0 254 55.036">
  <g id="Grupo_4" data-name="Grupo 4" transform="translate(-319.195 -256.48)">
    <path id="Caminho_2" data-name="Caminho 2" d="M439.44,301.818l1.489-7.008h1.013l.984,6.181h.019l3.572-6.181h1l-1.489,7.008h-.662l1.324-6.249h-.02l-3.621,6.249h-.623l-.985-6.249h-.018l-1.324,6.249Z" transform="translate(29.839 9.512)" fill="#313133"/>
    <path id="Caminho_3" data-name="Caminho 3" d="M452.6,299.055h2.745l-.587-3.681Zm-2.318,2.763,4.245-7.008h.748l1.2,7.008h-.683l-.341-2.2h-3.193l-1.293,2.2Z" transform="translate(32.529 9.512)" fill="#313133"/>
    <path id="Caminho_4" data-name="Caminho 4" d="M461.61,301.254H463.2a6.743,6.743,0,0,0,.856-.054,2.884,2.884,0,0,0,.856-.268,2.176,2.176,0,0,0,.681-.476,3.672,3.672,0,0,0,.5-.658,3.921,3.921,0,0,0,.339-.744,6.407,6.407,0,0,0,.21-.75,6.544,6.544,0,0,0,.112-.775,2.981,2.981,0,0,0-.025-.75,1.881,1.881,0,0,0-.232-.652,1.428,1.428,0,0,0-.5-.491,1.762,1.762,0,0,0-.7-.215,7.583,7.583,0,0,0-.852-.049h-1.588Zm-.779.564,1.489-7.008h2.4c.193,0,.384.005.568.015a3.622,3.622,0,0,1,.54.066,2.563,2.563,0,0,1,.5.161,1.975,1.975,0,0,1,.443.282,1.6,1.6,0,0,1,.438.619,3.178,3.178,0,0,1,.195.769,3.987,3.987,0,0,1,.01.819c-.027.275-.062.53-.109.764s-.116.471-.193.71a5.141,5.141,0,0,1-.287.706,4.466,4.466,0,0,1-.4.661,3.915,3.915,0,0,1-.524.579,2.979,2.979,0,0,1-.625.438,3.362,3.362,0,0,1-.66.257,4.1,4.1,0,0,1-.686.127,6.788,6.788,0,0,1-.7.034Z" transform="translate(35.147 9.512)" fill="#313133"/>
    <path id="Caminho_5" data-name="Caminho 5" d="M471.3,301.818l1.489-7.008h4.664l-.117.564h-4l-.545,2.531H476.4l-.117.564h-3.61l-.6,2.785h4.1l-.117.564Z" transform="translate(37.744 9.512)" fill="#313133"/>
    <path id="Caminho_6" data-name="Caminho 6" d="M376.837,299.762a1.975,1.975,0,0,0,.04.794,1.13,1.13,0,0,0,.322.53,1.328,1.328,0,0,0,.553.3,3.011,3.011,0,0,0,1.563-.025,2,2,0,0,0,.624-.316,1.708,1.708,0,0,0,.638-1.017.982.982,0,0,0-.045-.663,1.036,1.036,0,0,0-.4-.413,2.52,2.52,0,0,0-.629-.257c-.24-.066-.487-.129-.739-.19s-.5-.136-.74-.22a1.969,1.969,0,0,1-.614-.341,1.217,1.217,0,0,1-.366-.55,1.686,1.686,0,0,1,0-.851,2.068,2.068,0,0,1,.3-.7,2.339,2.339,0,0,1,.574-.6,2.792,2.792,0,0,1,.831-.418,3.424,3.424,0,0,1,1.065-.157,2.65,2.65,0,0,1,1,.166,1.56,1.56,0,0,1,.638.453,1.435,1.435,0,0,1,.3.667,2.019,2.019,0,0,1-.029.808h-.633a1.421,1.421,0,0,0,0-.692,1.023,1.023,0,0,0-.277-.476,1.173,1.173,0,0,0-.492-.273,2.245,2.245,0,0,0-.628-.086,2.5,2.5,0,0,0-.88.14,1.966,1.966,0,0,0-.629.366,1.617,1.617,0,0,0-.388.5,1.291,1.291,0,0,0-.146.543.748.748,0,0,0,.15.545,1.273,1.273,0,0,0,.454.337,3.285,3.285,0,0,0,.64.215c.241.054.486.112.731.176a6.451,6.451,0,0,1,.71.216,1.751,1.751,0,0,1,.574.343,1.215,1.215,0,0,1,.337.549,1.737,1.737,0,0,1-.006.841,2.321,2.321,0,0,1-.992,1.509,3.5,3.5,0,0,1-2.006.537,3.213,3.213,0,0,1-.984-.142,1.676,1.676,0,0,1-.714-.428,1.473,1.473,0,0,1-.377-.71,2.384,2.384,0,0,1,.021-1Z" transform="translate(14.129 9.475)" fill="#313133"/>
    <path id="Caminho_7" data-name="Caminho 7" d="M385.907,301.818l1.489-7.008h.663l-1.489,7.008Z" transform="translate(16.555 9.512)" fill="#313133"/>
    <path id="Caminho_8" data-name="Caminho 8" d="M392.7,301.818l1.489-7.008H395.2l.984,6.181h.019l3.572-6.181h1l-1.489,7.008h-.662l1.324-6.249h-.019l-3.622,6.249h-.623l-.984-6.249h-.019l-1.324,6.249Z" transform="translate(18.24 9.512)" fill="#313133"/>
    <path id="Caminho_9" data-name="Caminho 9" d="M406.99,298.159a5.506,5.506,0,0,0,.849-.059,2.037,2.037,0,0,0,.67-.22,1.432,1.432,0,0,0,.491-.438,1.954,1.954,0,0,0,.3-.725,1,1,0,0,0-.216-1,1.9,1.9,0,0,0-1.3-.341h-1.715l-.593,2.785Zm-2.959,3.66,1.489-7.008h2.561a3.187,3.187,0,0,1,1.091.155,1.314,1.314,0,0,1,.607.428,1.22,1.22,0,0,1,.231.629,2.477,2.477,0,0,1-.059.744,2.227,2.227,0,0,1-.443.965,2.388,2.388,0,0,1-.745.6,3.254,3.254,0,0,1-.924.306,5.65,5.65,0,0,1-.984.089h-1.5l-.661,3.1Z" transform="translate(21.052 9.512)" fill="#313133"/>
    <path id="Caminho_10" data-name="Caminho 10" d="M413.654,301.818l1.489-7.008h.663l-1.373,6.444h3.758l-.117.564Z" transform="translate(23.44 9.512)" fill="#313133"/>
    <path id="Caminho_11" data-name="Caminho 11" d="M422.825,301.818l1.489-7.008h4.664l-.116.564h-4l-.545,2.531h3.612l-.117.564H424.2l-.6,2.785h4.1l-.117.564Z" transform="translate(25.716 9.512)" fill="#313133"/>
    <path id="Caminho_12" data-name="Caminho 12" d="M487.9,301.818l1.489-7.008h4.664l-.116.564h-4l-.545,2.531H493l-.117.564h-3.61l-.6,2.785h4.1l-.117.564Z" transform="translate(41.864 9.512)" fill="#313133"/>
    <path id="Caminho_13" data-name="Caminho 13" d="M499.3,299.055h2.745l-.585-3.681Zm-2.317,2.763,4.245-7.008h.748l1.2,7.008H502.5l-.341-2.2h-3.192l-1.294,2.2Z" transform="translate(44.12 9.512)" fill="#313133"/>
    <path id="Caminho_14" data-name="Caminho 14" d="M508.256,299.762a1.975,1.975,0,0,0,.04.794,1.127,1.127,0,0,0,.321.53,1.332,1.332,0,0,0,.554.3,3.006,3.006,0,0,0,1.561-.025,1.994,1.994,0,0,0,.624-.316,1.745,1.745,0,0,0,.419-.462,1.706,1.706,0,0,0,.217-.555.968.968,0,0,0-.044-.663,1.036,1.036,0,0,0-.4-.413,2.5,2.5,0,0,0-.629-.257c-.238-.066-.486-.129-.739-.19s-.5-.136-.74-.22a2,2,0,0,1-.614-.341,1.217,1.217,0,0,1-.366-.55,1.688,1.688,0,0,1,0-.851,2.064,2.064,0,0,1,.3-.7,2.325,2.325,0,0,1,.575-.6,2.77,2.77,0,0,1,.83-.418,3.43,3.43,0,0,1,1.065-.157,2.653,2.653,0,0,1,1,.166,1.555,1.555,0,0,1,.637.453,1.436,1.436,0,0,1,.3.667,2.043,2.043,0,0,1-.029.808h-.634a1.422,1.422,0,0,0,0-.692,1.02,1.02,0,0,0-.276-.476,1.178,1.178,0,0,0-.493-.273,2.24,2.24,0,0,0-.629-.086,2.489,2.489,0,0,0-.877.14,1.972,1.972,0,0,0-.63.366,1.631,1.631,0,0,0-.387.5,1.292,1.292,0,0,0-.146.543.748.748,0,0,0,.15.545,1.269,1.269,0,0,0,.453.337,3.344,3.344,0,0,0,.64.215q.363.081.731.176a6.289,6.289,0,0,1,.71.216,1.756,1.756,0,0,1,.575.343,1.224,1.224,0,0,1,.336.549,1.721,1.721,0,0,1-.006.841,2.324,2.324,0,0,1-.991,1.509,3.5,3.5,0,0,1-2.006.537,3.216,3.216,0,0,1-.985-.142,1.684,1.684,0,0,1-.714-.428,1.483,1.483,0,0,1-.377-.71,2.385,2.385,0,0,1,.021-1Z" transform="translate(46.74 9.475)" fill="#313133"/>
    <path id="Caminho_15" data-name="Caminho 15" d="M519.9,298.188l2.835-3.378h.769l-3.378,3.952-.654,3.057h-.66l.642-3.008-1.654-4h.758Z" transform="translate(49.283 9.512)" fill="#313133"/>
    <path id="Caminho_16" data-name="Caminho 16" d="M415.25,269.467l-5.3,12.987h10.543Zm10.844,26.867-3.635-8.817H407.983l-3.633,8.817h-7.03l15.19-35.742h5.66l15.19,35.742Z" transform="translate(19.387 1.02)" fill="#313133"/>
    <path id="Caminho_17" data-name="Caminho 17" d="M453.815,296.333l-18.7-23.59v23.59h-6.494V260.591h5.065l18.7,23.59v-23.59h6.494v35.742Z" transform="translate(27.153 1.02)" fill="#313133"/>
    <path id="Caminho_18" data-name="Caminho 18" d="M468.092,266.429h-4.944V290.5h4.944c9.769,0,13.225-4.885,13.225-12.033s-3.456-12.033-13.225-12.033m.358,29.9H455.879V260.591H468.45c14.3,0,20.312,8.042,20.312,17.871s-6.016,17.871-20.312,17.871" transform="translate(33.918 1.02)" fill="#313133"/>
    <rect id="Retângulo_450" data-name="Retângulo 450" width="7.269" height="35.742" transform="translate(526.482 261.611)" fill="#313133"/>
    <path id="Caminho_19" data-name="Caminho 19" d="M376.131,296.333V260.591H383.4v30.083h17.787l-2.391,5.659Z" transform="translate(14.129 1.02)" fill="#313133"/>
    <path id="Caminho_20" data-name="Caminho 20" d="M510.7,271.534l-7.592-11.017h-8.316l11.7,16.3Z" transform="translate(43.575 1.002)" fill="#313133"/>
    <path id="Caminho_21" data-name="Caminho 21" d="M516.478,277.988l12.565-17.472h-8.078L507.5,278.05h0l-13.284,18.369H502.3l9.636-13.642,9.513,13.642h8.318Z" transform="translate(43.432 1.002)" fill="#313133"/>
    <path id="Caminho_22" data-name="Caminho 22" d="M344.127,302.487l-13.014-13.014a11.5,11.5,0,0,1-2.03-2.706,6.215,6.215,0,0,1-.754-3.1,8.169,8.169,0,0,1,.936-3.486,15.417,15.417,0,0,1,2.992-3.929L343,265.508l-3.253-9.028-14,14a24.492,24.492,0,0,0-5.049,6.87A14.993,14.993,0,0,0,319.2,283.9a13.539,13.539,0,0,0,1.56,6.088,22.625,22.625,0,0,0,4.164,5.568l15.954,15.955Z" transform="translate(0)" fill="#00a1ed"/>
    <path id="Caminho_23" data-name="Caminho 23" d="M347.967,302.487l13.016-13.014a11.528,11.528,0,0,0,2.03-2.706,6.228,6.228,0,0,0,.754-3.1,8.187,8.187,0,0,0-.936-3.486,15.446,15.446,0,0,0-2.992-3.929L349.09,265.508l3.254-9.028,14,14a24.435,24.435,0,0,1,5.048,6.87,15,15,0,0,1,1.51,6.557,13.575,13.575,0,0,1-1.563,6.088,22.622,22.622,0,0,1-4.164,5.568L351.22,311.516Z" transform="translate(7.14)" fill="#00a1ed"/>
  </g>
</svg>
